<svg width="259" height="257" viewBox="0 0 259 257" fill="none" xmlns="http://www.w3.org/2000/svg">
<path d="M47.0758 222.696C92.5977 246.293 166.402 246.293 211.929 222.696C257.456 199.098 257.446 160.841 211.929 137.238C166.413 113.635 92.5977 113.645 47.0707 137.238C1.54364 160.831 1.554 199.098 47.0758 222.696Z" fill="#F5F5F5"/>
<path d="M217.12 187.209C228.675 187.209 238.042 182.779 238.042 177.315C238.042 171.85 228.675 167.42 217.12 167.42C205.565 167.42 196.198 171.85 196.198 177.315C196.198 182.779 205.565 187.209 217.12 187.209Z" fill="#E0E0E0"/>
<path d="M48.8163 198.101C60.3712 198.101 69.7383 193.671 69.7383 188.206C69.7383 182.742 60.3712 178.312 48.8163 178.312C37.2614 178.312 27.8943 182.742 27.8943 188.206C27.8943 193.671 37.2614 198.101 48.8163 198.101Z" fill="#E0E0E0"/>
<path d="M126.635 227.188L73.6648 196.862C73.4843 196.746 73.3341 196.589 73.2261 196.404C73.1181 196.219 73.0554 196.012 73.0432 195.798V195.002C73.0554 194.788 73.1181 194.581 73.2261 194.396C73.3341 194.211 73.4843 194.054 73.6648 193.938L138.249 156.93C138.441 156.833 138.653 156.783 138.868 156.783C139.083 156.783 139.295 156.833 139.487 156.93L192.458 187.256C192.637 187.372 192.787 187.53 192.894 187.715C193.001 187.899 193.063 188.107 193.074 188.32V189.121C193.063 189.334 193.001 189.542 192.894 189.727C192.787 189.911 192.637 190.069 192.458 190.185L127.873 227.188C127.682 227.285 127.47 227.335 127.254 227.335C127.039 227.335 126.827 227.285 126.635 227.188Z" fill="#EBEBEB"/>
<path d="M192.458 187.954L127.868 224.962C127.677 225.061 127.465 225.113 127.249 225.113C127.034 225.113 126.821 225.061 126.63 224.962L73.6648 194.636C73.5904 194.611 73.5259 194.563 73.4803 194.499C73.4346 194.436 73.4101 194.36 73.4101 194.282C73.4101 194.204 73.4346 194.128 73.4803 194.064C73.5259 194 73.5904 193.953 73.6648 193.927L138.249 156.919C138.441 156.823 138.653 156.773 138.868 156.773C139.083 156.773 139.295 156.823 139.487 156.919L192.458 187.245C192.532 187.271 192.597 187.318 192.642 187.382C192.688 187.446 192.712 187.522 192.712 187.6C192.712 187.678 192.688 187.754 192.642 187.817C192.597 187.881 192.532 187.929 192.458 187.954Z" fill="#FAFAFA"/>
<path d="M192.458 187.954L127.868 224.962C127.677 225.061 127.465 225.113 127.249 225.113C127.034 225.113 126.821 225.061 126.63 224.962L73.6648 194.636C73.5904 194.611 73.5259 194.563 73.4803 194.499C73.4346 194.436 73.4101 194.36 73.4101 194.282C73.4101 194.204 73.4346 194.128 73.4803 194.064C73.5259 194 73.5904 193.953 73.6648 193.927L138.249 156.919C138.441 156.823 138.653 156.773 138.868 156.773C139.083 156.773 139.295 156.823 139.487 156.919L192.458 187.245C192.532 187.271 192.597 187.318 192.642 187.382C192.688 187.446 192.712 187.522 192.712 187.6C192.712 187.678 192.688 187.754 192.642 187.817C192.597 187.881 192.532 187.929 192.458 187.954Z" fill="#FAFAFA"/>
<path d="M127.252 225.312V227.322C127.037 227.325 126.825 227.273 126.635 227.173L73.6648 196.847C73.4838 196.731 73.333 196.574 73.225 196.389C73.1169 196.204 73.0546 195.996 73.0432 195.783V194.986C73.0556 194.795 73.1081 194.608 73.1973 194.438C73.2865 194.268 73.4104 194.119 73.5612 193.999C73.3384 194.194 73.3747 194.462 73.6751 194.631L126.646 224.957C126.697 224.986 126.75 225.008 126.806 225.024L127.252 225.312Z" fill="#E0E0E0"/>
<path d="M95.312 191.542C95.3161 191.568 95.3161 191.594 95.312 191.619L95.255 191.696L94.9598 191.815L88.0704 192.164C87.9637 192.182 87.862 192.222 87.7726 192.282C87.6832 192.343 87.608 192.422 87.5524 192.514C87.4436 192.699 87.5006 192.848 87.6819 192.858L94.1776 193.187L94.3278 193.305C94.322 193.332 94.3115 193.358 94.2967 193.382C94.2652 193.433 94.222 193.475 94.1706 193.505C94.1192 193.536 94.0612 193.553 94.0015 193.557L87.4488 193.223C87.081 193.223 86.9618 192.894 87.1794 192.514C87.2971 192.321 87.4569 192.156 87.6469 192.033C87.8369 191.909 88.0524 191.829 88.2776 191.799L95.2239 191.444C95.2809 191.444 95.312 191.48 95.312 191.542Z" fill="#455A64"/>
<path d="M156.011 187.399C156.009 187.44 155.994 187.479 155.97 187.512C155.936 187.56 155.891 187.599 155.838 187.627C155.786 187.655 155.728 187.67 155.669 187.672C155.669 187.672 153.95 187.471 150.805 187.204C150.712 187.204 150.686 187.106 150.754 187.003C150.786 186.955 150.83 186.915 150.881 186.886C150.933 186.857 150.99 186.841 151.049 186.839C154.198 187.106 155.908 187.307 155.923 187.307C155.947 187.308 155.969 187.318 155.986 187.336C156.002 187.353 156.011 187.376 156.011 187.399Z" fill="#455A64"/>
<path d="M150.293 197.253C150.299 197.274 150.299 197.298 150.293 197.319C150.266 197.373 150.226 197.42 150.178 197.456C150.129 197.491 150.072 197.515 150.013 197.525C150.013 197.525 148.05 197.731 144.589 198.008C144.481 198.008 144.434 197.941 144.486 197.844C144.514 197.79 144.554 197.744 144.604 197.709C144.653 197.675 144.711 197.652 144.771 197.643C148.226 197.366 150.163 197.16 150.184 197.16C150.204 197.16 150.293 197.191 150.293 197.253Z" fill="#455A64"/>
<path d="M142.968 186.34C142.967 186.377 142.956 186.412 142.937 186.443C142.903 186.492 142.858 186.533 142.806 186.562C142.754 186.591 142.696 186.609 142.637 186.613C139.762 186.438 136.752 186.289 133.691 186.161C119.731 185.6 115.084 186.109 110.847 186.782C106.247 187.512 94.5454 191.737 93.5456 192.503C93.6596 193.264 100.471 197.469 104.227 198.183C107.692 198.846 111.753 199.345 126.392 198.738C129.593 198.604 132.784 198.445 135.882 198.26C135.985 198.26 136.027 198.332 135.975 198.43C135.946 198.482 135.906 198.527 135.856 198.561C135.807 198.595 135.75 198.617 135.69 198.625C132.582 198.81 129.396 198.969 126.195 199.103C111.515 199.715 107.438 199.211 103.952 198.548C100.585 197.9 92.6132 193.444 93.1571 192.503C93.701 191.563 106.869 187.075 110.992 186.418C115.255 185.744 119.922 185.23 133.919 185.796C136.98 185.919 139.995 186.073 142.875 186.248C142.887 186.246 142.9 186.247 142.912 186.251C142.924 186.256 142.935 186.262 142.945 186.271C142.954 186.28 142.96 186.291 142.964 186.303C142.969 186.315 142.97 186.328 142.968 186.34Z" fill="#455A64"/>
<path d="M116.783 189.414C116.436 188.617 115.607 188.175 114.462 188.175C113.103 188.245 111.788 188.682 110.66 189.44C110.027 189.838 109.439 190.306 108.91 190.833C108.414 191.326 107.983 191.878 107.625 192.478C107.144 193.219 106.919 194.096 106.983 194.976C107.143 196.106 108.076 196.78 109.469 196.775C110.829 196.708 112.145 196.27 113.271 195.51C114.508 194.747 115.548 193.706 116.307 192.472C116.694 191.852 116.922 191.145 116.97 190.416C116.98 190.073 116.917 189.731 116.783 189.414ZM115.934 192.472C115.241 193.603 114.29 194.556 113.157 195.253C112.128 195.945 110.928 196.345 109.687 196.41C108.402 196.41 107.552 195.793 107.412 194.765C107.391 194.634 107.382 194.502 107.387 194.369C107.432 193.698 107.641 193.049 107.998 192.478C108.691 191.349 109.64 190.397 110.769 189.697C111.8 189.005 113.002 188.607 114.245 188.545C115.281 188.545 116.053 188.946 116.374 189.676C116.695 190.406 116.55 191.408 115.934 192.472Z" fill="#455A64"/>
<path d="M116.374 189.666C116.053 188.936 115.302 188.535 114.245 188.535C113.002 188.596 111.8 188.995 110.769 189.687C109.64 190.387 108.691 191.339 107.998 192.467C107.641 193.039 107.431 193.688 107.387 194.359C107.382 194.491 107.391 194.624 107.412 194.755C107.552 195.783 108.402 196.399 109.687 196.399C110.928 196.334 112.128 195.934 113.157 195.243C114.29 194.546 115.241 193.593 115.934 192.462C116.55 191.408 116.7 190.416 116.374 189.666ZM114.996 192.472C114.027 194.133 111.888 195.49 110.205 195.49C108.542 195.49 107.967 194.133 108.925 192.478C109.883 190.822 112.033 189.466 113.711 189.46C114.861 189.46 115.493 190.098 115.467 191.002C115.434 191.523 115.272 192.028 114.996 192.472Z" fill="#81A7FF"/>
<path d="M104.356 188.206C104.334 188.197 104.31 188.192 104.286 188.192C104.262 188.192 104.239 188.197 104.216 188.206C100.932 189.234 93.5819 191.753 93.1416 192.508C92.7013 193.264 97.1354 195.762 99.2281 196.785C99.2766 196.803 99.3298 196.803 99.3783 196.785C99.4389 196.76 99.4936 196.724 99.5389 196.677C102.098 193.891 103.735 191.08 104.393 188.324V188.294C104.397 188.277 104.396 188.26 104.389 188.244C104.383 188.228 104.371 188.215 104.356 188.206Z" fill="#455A64"/>
<path d="M103.926 188.638C103.274 191.208 101.761 193.778 99.4197 196.389C96.2444 194.821 93.5974 193.002 93.5301 192.524C94.1517 192.025 98.938 190.18 103.926 188.638Z" fill="#81A7FF"/>
<path d="M156.073 187.893C156.014 188.647 155.819 189.385 155.498 190.072C155.472 190.127 155.433 190.174 155.384 190.211C155.336 190.248 155.279 190.272 155.219 190.283C155.11 190.283 155.053 190.231 155.094 190.134C155.778 188.499 155.654 187.826 155.612 187.667C155.343 187.636 154.209 187.507 152.302 187.338C152.119 188.502 151.737 189.626 151.173 190.663C151.144 190.716 151.104 190.762 151.054 190.796C151.005 190.831 150.948 190.854 150.888 190.864C150.779 190.864 150.738 190.797 150.785 190.699C151.686 188.854 151.878 187.774 151.893 187.214C151.899 187.176 151.913 187.14 151.933 187.107C151.954 187.075 151.981 187.046 152.012 187.024C152.072 186.971 152.15 186.942 152.23 186.942C154.623 187.153 155.913 187.307 155.928 187.307C155.944 187.308 155.959 187.313 155.973 187.321C155.986 187.329 155.998 187.34 156.006 187.353C156.07 187.525 156.093 187.71 156.073 187.893Z" fill="#455A64"/>
<path d="M152.81 194.657C152.803 194.7 152.785 194.741 152.758 194.775C151.246 196.831 150.168 197.453 150.116 197.479C150.077 197.503 150.033 197.519 149.987 197.525C149.987 197.525 148.505 197.684 145.843 197.905C145.77 197.905 145.724 197.905 145.719 197.818C145.721 197.782 145.732 197.746 145.75 197.714C145.768 197.682 145.792 197.655 145.822 197.633C146.944 196.604 147.927 195.436 148.749 194.158C148.781 194.108 148.825 194.066 148.878 194.036C148.93 194.007 148.989 193.99 149.049 193.989C149.143 193.989 149.168 194.086 149.101 194.189C148.317 195.391 147.404 196.504 146.376 197.51C148.48 197.33 149.764 197.196 150.07 197.165C150.978 196.478 151.769 195.65 152.411 194.713C152.446 194.667 152.491 194.629 152.543 194.603C152.595 194.577 152.653 194.564 152.712 194.564C152.725 194.562 152.738 194.562 152.751 194.566C152.764 194.57 152.775 194.576 152.785 194.585C152.795 194.594 152.802 194.606 152.806 194.618C152.811 194.631 152.812 194.644 152.81 194.657Z" fill="#455A64"/>
<path d="M159.399 201.807L146.185 202.691L144.869 197.705C144.865 197.69 144.856 197.676 144.844 197.666C144.832 197.656 144.817 197.65 144.802 197.648C142.284 196.97 139.254 197.181 135.799 198.27C135.725 198.297 135.659 198.341 135.607 198.399C135.587 198.422 135.572 198.449 135.564 198.478C135.556 198.508 135.554 198.539 135.561 198.568L138.575 206.443C138.582 206.461 138.595 206.477 138.612 206.487C138.629 206.498 138.649 206.502 138.669 206.499L143.849 206.587H143.916L159.275 202.177C159.328 202.161 159.378 202.134 159.42 202.098C159.462 202.061 159.495 202.016 159.518 201.966C159.52 201.949 159.52 201.932 159.518 201.915C159.544 201.843 159.477 201.802 159.399 201.807ZM144.004 206.217L138.948 206.135L136.032 198.512C139.244 197.546 142.072 197.371 144.439 197.998L145.76 203.004C145.76 203.045 145.817 203.071 145.879 203.066L157.747 202.274L144.004 206.217Z" fill="#455A64"/>
<path d="M157.767 202.269L144.004 206.217L138.948 206.135L136.032 198.512C139.244 197.546 142.072 197.371 144.439 197.998L145.76 203.004C145.76 203.045 145.817 203.071 145.879 203.066L157.767 202.269Z" fill="#81A7FF"/>
<path d="M170.603 182.629L160.342 178.255H160.285L155.006 178.358C154.948 178.361 154.893 178.381 154.846 178.415L142.678 186.31C142.613 186.35 142.563 186.409 142.533 186.479C142.522 186.503 142.519 186.529 142.527 186.554C142.535 186.579 142.552 186.6 142.574 186.613C144.771 187.692 147.557 187.893 150.862 187.209C150.91 187.196 150.956 187.175 150.997 187.147L158.104 182.151L170.324 182.984C170.378 182.981 170.432 182.966 170.48 182.94C170.529 182.915 170.571 182.879 170.603 182.835C170.634 182.801 170.652 182.757 170.655 182.712C170.656 182.694 170.652 182.677 170.643 182.662C170.633 182.647 170.62 182.636 170.603 182.629ZM158.254 181.771C158.184 181.77 158.117 181.794 158.063 181.838L150.919 186.854C147.811 187.481 145.221 187.317 143.108 186.34L154.882 178.713L160.062 178.615L169.241 182.527L158.254 181.771Z" fill="#455A64"/>
<path d="M169.225 182.527L158.254 181.771C158.184 181.77 158.117 181.794 158.063 181.838L150.919 186.854C147.811 187.481 145.221 187.317 143.108 186.34L154.882 178.713L160.062 178.615L169.225 182.527Z" fill="#81A7FF"/>
<path d="M170.106 192.164L157.229 189.666H157.172L137.98 192.236C137.926 192.247 137.875 192.269 137.829 192.3C137.784 192.33 137.745 192.37 137.715 192.416C137.659 192.508 137.684 192.586 137.767 192.601L153.986 195.171H154.048L169.899 192.529C169.953 192.518 170.003 192.496 170.048 192.464C170.093 192.432 170.13 192.391 170.158 192.344C170.173 192.317 170.182 192.287 170.184 192.257C170.185 192.234 170.178 192.212 170.164 192.195C170.149 192.178 170.128 192.167 170.106 192.164ZM154.224 194.806L139.202 192.426L157.001 190.057L168.946 192.359L154.224 194.806Z" fill="#455A64"/>
<path d="M168.925 192.354L154.224 194.801L139.181 192.421L156.98 190.051L168.925 192.354Z" fill="#81A7FF"/>
<path d="M153.442 203.508L151.955 203.94L150.453 204.377L148.775 204.86C148.166 205.04 147.607 205.356 147.14 205.782C146.672 206.209 146.308 206.735 146.076 207.322C145.786 208.35 146.49 208.951 147.687 208.699L149.272 208.365H149.319L150.785 208.057L152.225 207.754C153.007 207.558 153.613 206.345 153.893 205.369C153.995 205.024 154.056 204.669 154.074 204.31C154.1 203.76 153.934 203.385 153.442 203.508ZM153.483 205.461C153.209 206.438 152.691 207.301 152.344 207.389L151.308 207.605L150.816 207.707L149.78 207.923L149.308 208.026L147.78 208.345C146.941 208.52 146.397 208.175 146.413 207.543C146.418 207.431 146.437 207.321 146.47 207.214C146.659 206.736 146.955 206.306 147.337 205.959C147.718 205.612 148.175 205.355 148.671 205.209L150.225 204.752L150.707 204.613L151.743 204.31L152.261 204.161L153.297 203.858C153.696 203.775 153.763 204.495 153.483 205.461Z" fill="#455A64"/>
<path d="M152.292 204.161C152.27 204.11 152.239 204.063 152.199 204.024C152.158 203.985 152.111 203.955 152.059 203.935C152.022 203.925 151.982 203.925 151.945 203.935L150.443 204.372C150.354 204.398 150.277 204.455 150.225 204.531C150.173 204.603 150.173 204.675 150.225 204.706C150.24 204.717 150.252 204.731 150.261 204.747C150.438 204.957 150.417 205.554 150.21 206.289C150.051 206.928 149.75 207.523 149.329 208.031L149.262 208.098C149.231 208.122 149.205 208.152 149.187 208.187C149.169 208.221 149.159 208.26 149.158 208.298C149.164 208.322 149.179 208.342 149.199 208.355C149.219 208.368 149.243 208.374 149.267 208.37H149.314L150.779 208.062C150.821 208.051 150.859 208.031 150.893 208.006C151.047 207.898 151.183 207.768 151.297 207.62C151.709 207.076 152.01 206.458 152.183 205.8C152.289 205.458 152.35 205.104 152.365 204.747C152.385 204.549 152.36 204.348 152.292 204.161ZM151.774 205.888C151.611 206.565 151.28 207.19 150.811 207.707L149.775 207.923C150.15 207.395 150.429 206.805 150.598 206.181C150.776 205.678 150.817 205.137 150.717 204.613L151.753 204.31C152.007 204.454 152.007 205.086 151.774 205.888Z" fill="#455A64"/>
<path d="M151.774 205.888C151.611 206.565 151.28 207.19 150.811 207.707L149.775 207.923C150.15 207.395 150.429 206.805 150.598 206.181C150.776 205.678 150.817 205.137 150.717 204.613L151.753 204.31C152.007 204.454 152.007 205.086 151.774 205.888Z" fill="#81A7FF"/>
<path d="M170.034 177.058L168.935 176.759L167.832 176.456L166.594 176.117C165.693 175.87 164.279 176.482 163.382 177.505C162.486 178.528 162.414 179.607 163.227 179.962L164.341 180.44L165.34 180.871L166.33 181.298C166.511 181.36 166.874 181.298 167.568 180.784C168.065 180.379 168.527 179.932 168.946 179.448C169.348 179.001 169.703 178.515 170.008 177.998C170.127 177.804 170.203 177.587 170.23 177.361C170.24 177.295 170.226 177.228 170.19 177.172C170.154 177.116 170.098 177.076 170.034 177.058ZM169.624 178.008C169.344 178.486 169.016 178.933 168.645 179.345C168.26 179.791 167.835 180.202 167.376 180.573C167.024 180.851 166.755 180.985 166.641 180.949L165.946 180.65L165.605 180.501L164.91 180.203L164.595 180.064L163.559 179.612C162.895 179.324 162.947 178.445 163.683 177.608C164.418 176.77 165.568 176.271 166.309 176.477L167.475 176.795L167.822 176.888L168.604 177.099L168.977 177.202L169.749 177.412C169.847 177.453 169.806 177.669 169.624 178.008Z" fill="#455A64"/>
<path d="M168.998 176.816C168.994 176.802 168.986 176.789 168.975 176.779C168.964 176.769 168.95 176.762 168.935 176.759L167.832 176.456C167.75 176.451 167.669 176.475 167.603 176.524C167.537 176.573 167.492 176.644 167.475 176.723C167.475 176.723 167.475 176.765 167.475 176.79C167.208 177.435 166.82 178.023 166.33 178.522C165.84 179.123 165.258 179.644 164.605 180.064L164.517 180.106C164.431 180.139 164.36 180.201 164.315 180.28C164.279 180.352 164.289 180.414 164.346 180.44L165.346 180.871C165.382 180.884 165.423 180.884 165.46 180.871C165.643 180.822 165.817 180.746 165.978 180.645C166.642 180.182 167.243 179.634 167.765 179.016C168.272 178.481 168.687 177.866 168.992 177.196C169.023 177.112 169.04 177.024 169.044 176.934C169.037 176.892 169.021 176.852 168.998 176.816ZM167.444 178.918C166.939 179.557 166.317 180.094 165.61 180.501L164.916 180.203C165.542 179.747 166.112 179.219 166.615 178.63C167.098 178.111 167.501 177.524 167.811 176.888L168.593 177.099C168.609 177.371 168.127 178.127 167.438 178.918H167.444Z" fill="#455A64"/>
<path d="M168.588 177.099C168.588 177.371 168.127 178.127 167.438 178.918C166.934 179.557 166.312 180.094 165.605 180.501L164.91 180.203C165.537 179.747 166.107 179.219 166.61 178.63C167.092 178.111 167.496 177.524 167.806 176.888L168.588 177.099Z" fill="#81A7FF"/>
<path d="M113.711 189.46C112.038 189.46 109.889 190.817 108.925 192.478C107.962 194.138 108.542 195.49 110.205 195.49C111.883 195.49 114.027 194.133 114.996 192.472C115.264 192.035 115.422 191.539 115.457 191.028C115.514 190.098 114.861 189.46 113.711 189.46ZM114.633 192.472C113.784 193.932 111.904 195.12 110.427 195.12C108.951 195.12 108.448 193.937 109.298 192.478C110.148 191.018 112.028 189.836 113.499 189.83C114.97 189.825 115.478 191.013 114.633 192.472Z" fill="#455A64"/>
<path d="M206.62 93.034C204.46 95.8867 200.098 101.001 197.933 103.699C196.786 105.109 196.166 106.869 196.177 108.68C196.177 110.022 196.565 111.142 197.886 110.572C198.845 110.155 199.44 109.667 200.849 108.3C202.103 107.071 209.355 97.9735 209.355 97.9735C209.355 97.9735 209.951 92.8747 211.826 92.3195C213.701 91.7644 211.152 90.2224 211.152 90.2224C210.36 90.3098 208.801 90.1556 206.62 93.034Z" fill="#9A4A4D"/>
<path d="M180.088 161.247L166.547 176.585C166.461 176.681 166.346 176.748 166.219 176.777C166.092 176.805 165.959 176.794 165.839 176.744C165.719 176.695 165.617 176.609 165.548 176.499C165.479 176.39 165.446 176.261 165.454 176.132L166.801 155.67L180.088 161.247Z" fill="#FFA8A7"/>
<path d="M165.454 176.132C165.446 176.261 165.479 176.39 165.548 176.499C165.617 176.609 165.719 176.695 165.839 176.744C165.959 176.794 166.092 176.805 166.219 176.777C166.346 176.748 166.461 176.681 166.547 176.585L169.189 173.588C168.556 173.653 167.918 173.544 167.344 173.271C166.77 172.999 166.283 172.575 165.936 172.046L165.739 171.753L165.454 176.132Z" fill="#263238"/>
<path d="M199.948 76.1799L199.223 77.9275L198.337 80.0298L166.796 155.665C167.629 157.813 169.25 159.568 171.334 160.579C174.442 162.224 178.166 162.522 180.072 161.242L211.344 86.1618L213.022 82.1372C211.81 84.6815 198.731 78.7499 199.948 76.1799Z" fill="#81A7FF"/>
<path d="M197.146 82.8105L195.529 86.7118C195.011 87.8272 197.146 89.5439 199.844 90.9369C203.419 92.8027 207.998 94.098 208.65 92.6228L209.847 89.7495L210.256 88.7215C209.583 90.1967 205.004 88.9066 201.424 87.0408C198.834 85.6992 196.762 84.0544 197.083 82.9288C197.094 82.8847 197.115 82.844 197.146 82.8105Z" fill="#EBEBEB"/>
<path d="M196.752 83.782C195.571 86.352 208.702 92.2784 209.883 89.693L211.515 85.7917C210.334 88.3617 197.203 82.4713 198.384 79.8859L196.752 83.782Z" fill="#81A7FF"/>
<path d="M199.948 76.1799L198.337 80.0298C197.146 82.5587 209.79 88.408 211.344 86.1618C211.377 86.1188 211.405 86.0723 211.427 86.023L213.022 82.1372C211.81 84.6815 198.731 78.7499 199.948 76.1799Z" fill="#EBEBEB"/>
<path opacity="0.1" d="M211.344 86.1618L213.022 82.1372C212.463 83.2886 209.49 82.7026 206.506 81.4844L173.846 161.586L166.547 176.585L180.088 161.247L211.344 86.1618Z" fill="black"/>
<path d="M206.755 59.8553L199.948 76.1799C199.43 77.2799 201.502 78.9915 204.196 80.3896C207.765 82.2657 212.354 83.597 213.059 82.1372L219.632 66.4191C221.466 62.8828 215.141 58.4315 210.598 58.1951C208.878 58.082 207.438 58.5343 206.755 59.8553Z" fill="#FFA8A7"/>
<path d="M213.043 65.242L206.527 81.4793C209.184 82.5638 211.821 83.1446 212.743 82.4456C212.81 82.3908 212.872 82.3306 212.929 82.2657C212.96 82.2194 212.996 82.1835 213.022 82.1372L219.782 65.9513C218.943 67.8943 213.043 65.242 213.043 65.242Z" fill="#F28F8F"/>
<path d="M233.457 172.832L229.723 173.938L228.106 168.535L231.924 167.24L233.457 172.832Z" fill="#B16668"/>
<path d="M229.174 172.108L229.013 171.594C228.702 171.851 228.609 175.13 227.733 177.022C226.78 179.078 225.77 180.558 225.346 181.488C224.776 182.732 226.993 183.39 229.443 182.192C230.655 181.596 232.603 180.044 232.913 179.047C233.224 178.05 233.115 176.759 233.385 176.014C233.654 175.269 234.493 174.292 234.53 173.516C234.405 172.837 234.133 172.193 233.732 171.63C233.364 171.028 232.96 170.36 232.753 170.489C232.753 170.571 232.872 170.895 232.872 170.895C232.513 171.537 231.973 172.062 231.318 172.406C230.733 172.704 229.37 172.75 229.174 172.108Z" fill="#263238"/>
<path d="M224.201 111.23C226.454 114.098 226.858 117.058 226.366 125.442C225.874 133.825 225.724 140.862 225.848 141.309C225.972 141.756 228.624 145.148 229.474 148.217C230.323 151.286 232.649 168.669 232.649 168.669C232.14 169.294 231.491 169.792 230.753 170.124C230.016 170.456 229.211 170.612 228.402 170.581C228.402 170.581 219 145.179 218.368 143.288C217.736 141.396 213.706 121.535 213.706 121.535L214.317 110.32L224.201 111.23Z" fill="#37474F"/>
<path d="M214.4 86.5319H217.508C219.464 86.5319 221.339 85.7615 222.722 84.3899C224.105 83.0184 224.883 81.158 224.884 79.2177C224.884 76.8661 223.943 74.6109 222.267 72.9481C220.592 71.2853 218.319 70.3512 215.949 70.3512C213.579 70.3512 211.306 71.2853 209.631 72.9481C207.955 74.6109 207.013 76.8661 207.013 79.2177C207.013 80.1795 207.205 81.1319 207.576 82.0203C207.947 82.9087 208.492 83.7157 209.178 84.3951C209.864 85.0745 210.678 85.6129 211.575 85.9796C212.471 86.3462 213.431 86.5339 214.4 86.5319Z" fill="#263238"/>
<path d="M209.711 165.74L205.816 165.689L205.741 171.321L209.636 171.373L209.711 165.74Z" fill="#B16668"/>
<path d="M206.993 120.872C207.34 117.002 208.174 110.294 208.174 110.294L218.15 109.713C219.767 112.211 219.062 116.395 218.622 120.127L212.924 142.291C213.038 143.355 214.022 145.606 212.924 151.311C211.696 157.685 209.873 166.819 209.873 166.819C209.873 166.819 207.029 168.237 205.625 166.69C205.625 166.69 204.874 145.976 205.403 140.476C205.967 134.493 206.76 123.524 206.993 120.872Z" fill="#37474F"/>
<path d="M205.781 169.399V168.844C205.408 168.998 204.33 172.103 202.932 173.65C201.404 175.341 199.995 176.446 199.306 177.207C198.394 178.235 200.311 179.509 203.004 179.088C204.346 178.882 206.672 177.967 207.262 177.114C207.853 176.261 208.143 174.986 208.624 174.359C209.106 173.732 210.178 173.038 210.463 172.303C210.552 171.612 210.485 170.909 210.267 170.247C210.096 169.563 209.909 168.808 209.676 168.87C209.676 168.952 209.676 169.291 209.676 169.291C209.135 169.797 208.459 170.138 207.728 170.273C207.096 170.401 205.775 170.072 205.781 169.399Z" fill="#263238"/>
<path d="M209.36 102.538C209.111 104.799 207.64 114.622 207.64 114.622C215.162 118.6 224.491 115.964 225.915 114.324C224.625 110.099 223.232 107.693 222.17 106.573L223.776 100.364C223.776 100.364 220.15 96.5292 223.377 90.4897L219.388 90.1659L213.535 89.9963C212.137 90.0734 211.137 90.207 211.137 90.207C210.067 91.9685 209.151 93.817 208.397 95.7325C207.816 97.2334 207.2 99.4282 209.36 102.538Z" fill="#F0F0F0"/>
<path d="M210.215 74.2113C209.272 74.7665 208.106 77.1206 208.22 82.0601C208.319 86.2441 209.686 87.2772 210.37 87.5753C211.054 87.8735 212.38 87.6936 213.67 87.4777V89.9911C213.67 89.9911 211.888 92.0471 212.002 93.1933C212.116 94.3396 214.592 94.6171 216.234 93.4915C217.438 92.5648 218.475 91.442 219.3 90.171L219.269 84.3988C219.269 84.3988 220.031 85.1287 221.315 84.0133C222.351 83.0933 222.73 81.5461 221.906 80.7134C221.692 80.5154 221.433 80.3707 221.151 80.2913C220.869 80.2119 220.572 80.2001 220.285 80.2568C219.998 80.3135 219.728 80.4371 219.498 80.6175C219.269 80.7979 219.085 81.0298 218.964 81.2943C218.964 81.2943 216.892 81.3662 214.183 79.8756C213.119 79.3078 212.205 78.4989 211.515 77.5147C210.826 76.5305 210.38 75.3987 210.215 74.2113Z" fill="#B16668"/>
<path d="M212.929 81.0064C212.921 81.0785 212.928 81.1515 212.951 81.2205C212.973 81.2895 213.01 81.3531 213.059 81.407C213.108 81.4609 213.168 81.5039 213.235 81.5332C213.302 81.5625 213.374 81.5774 213.447 81.5769C213.556 81.5829 213.664 81.5568 213.757 81.5018C213.851 81.4468 213.926 81.3655 213.973 81.2682C214.02 81.1709 214.036 81.0619 214.021 80.9551C214.005 80.8483 213.958 80.7484 213.885 80.6683C213.813 80.5881 213.717 80.5312 213.612 80.5047C213.507 80.4783 213.396 80.4835 213.293 80.5197C213.191 80.5559 213.101 80.6215 213.037 80.7082C212.972 80.7948 212.934 80.8986 212.929 81.0064Z" fill="#263238"/>
<path d="M212.789 84.553L211.556 84.9436C211.579 85.0255 211.618 85.102 211.671 85.1687C211.724 85.2355 211.789 85.291 211.864 85.3322C211.939 85.3734 212.021 85.3993 212.106 85.4085C212.191 85.4177 212.277 85.4099 212.359 85.3857C212.524 85.3271 212.66 85.2084 212.74 85.0538C212.82 84.8991 212.838 84.72 212.789 84.553Z" fill="#9A4A4D"/>
<path d="M208.583 79.3925L209.655 78.6523C209.61 78.5807 209.551 78.519 209.481 78.4709C209.411 78.4228 209.332 78.3893 209.249 78.3724C209.165 78.3556 209.079 78.3558 208.996 78.373C208.913 78.3902 208.834 78.424 208.764 78.4724C208.622 78.5739 208.523 78.7257 208.49 78.8967C208.456 79.0677 208.489 79.2451 208.583 79.3925Z" fill="#263238"/>
<path d="M208.827 80.6261C208.827 80.7259 208.856 80.8235 208.912 80.9069C208.967 80.9903 209.046 81.0559 209.138 81.0957C209.23 81.1356 209.332 81.1479 209.431 81.1311C209.53 81.1144 209.623 81.0694 209.696 81.0016C209.77 80.9337 209.823 80.846 209.847 80.7492C209.871 80.6523 209.867 80.5505 209.834 80.4562C209.801 80.3618 209.741 80.2791 209.662 80.218C209.582 80.1568 209.486 80.12 209.386 80.1121C209.243 80.1079 209.105 80.1594 209 80.2555C208.896 80.3516 208.833 80.4847 208.827 80.6261Z" fill="#263238"/>
<path d="M211.328 80.3279L211.246 83.4942L209.567 82.9802L211.328 80.3279Z" fill="#9A4A4D"/>
<path d="M213.67 87.4777C215.027 87.3029 217.814 86.5062 218.249 85.4217C218.074 85.9761 217.733 86.4641 217.27 86.8197C216.436 87.5291 213.67 88.3258 213.67 88.3258V87.4777Z" fill="#9A4A4D"/>
<path d="M224.812 80.5952L226.713 79.2125C226.628 79.0847 226.517 78.9754 226.388 78.891C226.26 78.8066 226.115 78.749 225.963 78.7217C225.811 78.6943 225.655 78.6977 225.504 78.7317C225.354 78.7657 225.212 78.8296 225.087 78.9196C224.833 79.1109 224.664 79.3913 224.613 79.7031C224.562 80.0148 224.633 80.3341 224.812 80.5952Z" fill="#263238"/>
<path d="M215.488 130.278L213.856 122.142C212.415 121.635 211.046 120.944 209.785 120.086C210.59 121.098 211.552 121.977 212.634 122.692L215.488 130.278Z" fill="#263238"/>
<path d="M223.776 86.5679C222.046 85.6992 222.284 84.075 223.16 82.3531C224.035 80.6312 225.206 79.4747 226.941 80.3382C227.743 80.7719 228.343 81.4981 228.615 82.3632C228.887 83.2283 228.809 84.1645 228.398 84.9737C227.987 85.7829 227.275 86.4017 226.412 86.6992C225.55 86.9968 224.604 86.9496 223.776 86.5679Z" fill="#263238"/>
<path d="M195.866 112.278C196.736 112.504 197.581 112.432 198.782 112.844C199.581 113.187 200.452 113.334 201.321 113.27C202.45 113.198 205.397 111.816 208.013 110.238C210.883 108.389 213.411 106.064 215.488 103.365C217.855 100.04 220.476 94.7919 221.73 92.7873C222.983 90.7827 223.413 90.4897 223.413 90.4897C225.05 90.5565 226.677 92.0317 225.589 96.0101C224.688 99.2894 222.269 103.54 219.29 107.118C217.027 109.763 214.341 112.02 211.339 113.8C208.573 115.475 206.159 116.308 203.051 117.331C202.212 117.608 201.663 118.02 200.129 118.739C199.512 119.071 198.849 119.312 198.161 119.454C197.302 119.576 196.43 119.576 195.571 119.454C194.479 119.305 193.449 118.866 192.587 118.184C192.115 117.811 191.737 117.334 191.484 116.791C191.233 116.241 191.185 115.62 191.349 115.038C191.379 114.92 191.44 114.812 191.525 114.725C191.615 114.661 191.717 114.616 191.824 114.591C191.932 114.566 192.043 114.563 192.152 114.581C193.407 114.705 194.667 114.765 195.928 114.761C196.964 114.689 197.684 114.493 197.534 114.35C197.384 114.206 196.783 114.288 195.954 113.933C195.125 113.579 194.581 112.797 194.809 112.391C195.037 111.985 194.996 112.052 195.866 112.278Z" fill="#B16668"/>
<path d="M190.147 99.6492C191.346 99.1329 192.67 98.9688 193.96 99.1763C194.996 99.3459 194.996 102.774 191.665 103.869C189.495 104.573 188.189 104.26 187.49 106.033C187.49 106.033 186.081 105.848 186.402 103.869C186.754 101.826 187.679 99.9214 189.07 98.3745C190.023 97.2539 190.106 96.3185 190.557 96.6269C191.007 96.9353 190.842 98.0301 190.842 98.0301L190.147 99.6492Z" fill="#B16668"/>
<path d="M55.6694 102.152C57.9797 104.892 62.1911 110.119 64.3563 112.818C65.5053 114.226 66.1259 115.987 66.1123 117.799C66.1123 119.14 65.729 120.261 64.4029 119.69C63.4498 119.274 62.8489 118.785 61.4452 117.418C60.1916 116.19 55.7472 110.89 55.7472 110.89C55.7472 110.89 52.3387 101.993 50.4635 101.428C49.4406 101.093 48.3638 100.95 47.2882 101.006C49.5519 100.23 52.7376 98.688 55.6694 102.152Z" fill="#F28F8F"/>
<path d="M46.1693 99.2277C48.4848 97.5007 52.3853 97.9478 54.5713 100.549C56.1615 102.456 59.9378 107.107 59.9378 107.107C59.4769 108.126 58.8059 109.037 57.9681 109.783C57.1303 110.528 56.1443 111.091 55.0737 111.435L46.1693 99.2277Z" fill="#E0E0E0"/>
<path d="M90.4844 160.599C90.4844 160.599 83.9783 137.197 74.8046 115.136C65.7033 93.2859 51.6707 71.117 49.3241 67.7709L49.2931 67.7298L49.2568 67.6784C49.0327 67.3831 48.7208 67.1652 48.3652 67.0554C48.0095 66.9457 47.6281 66.9496 47.2748 67.0666C46.9215 67.1837 46.6142 67.4079 46.3964 67.7077C46.1785 68.0075 46.0611 68.3676 46.0607 68.7372C46.0603 68.8722 46.0759 69.0068 46.1074 69.1381C46.1074 69.1381 52.3234 99.4025 61.3003 120.893C70.2772 142.383 82.5383 163.889 82.5383 163.889C82.7375 164.172 82.9993 164.405 83.3038 164.572C83.6082 164.739 83.947 164.834 84.2943 164.85C85.3567 164.93 86.4232 164.761 87.4076 164.356C88.3919 163.952 89.2667 163.323 89.9612 162.522C90.1905 162.262 90.3568 161.954 90.4475 161.621C90.5382 161.287 90.5508 160.938 90.4844 160.599Z" fill="#81A7FF"/>
<path opacity="0.1" d="M46.0554 68.7582C46.0549 68.8932 46.0706 69.0277 46.102 69.1591C46.102 69.1591 52.318 99.4234 61.2949 120.914C67.3193 135.373 74.8354 149.831 79.1141 157.752L83.8072 154.802C83.8072 154.802 46.4439 67.6582 47.8373 66.9951C47.6035 66.9945 47.3719 67.0396 47.1558 67.1279C46.9396 67.2162 46.7431 67.3459 46.5776 67.5097C46.4121 67.6735 46.2807 67.8681 46.1911 68.0823C46.1015 68.2965 46.0554 68.5262 46.0554 68.7582Z" fill="black"/>
<path d="M82.5122 163.909C81.7559 167.687 80.4402 172.54 82.8334 178.841C85.5322 185.996 93.7114 187.97 97.6378 187.975C103.113 187.975 106.579 185.96 106.579 185.96C106.579 185.96 103.745 184.881 102.574 180.82C102.342 179.935 102.199 179.029 102.15 178.116C101.896 174.827 101.787 171.244 98.8914 167.271C96.7918 164.293 93.876 161.974 90.4894 160.589L82.5122 163.909Z" fill="#EBEBEB"/>
<path d="M102.564 180.82C102.331 179.935 102.189 179.029 102.139 178.116C102.139 178.142 101.15 182.403 98.7308 182.151C96.3117 181.899 95.6228 179.345 92.406 179.345C88.4951 179.345 87.1483 182.604 83.7968 180.846C87.1535 186.443 94.0688 187.97 97.6274 187.975C103.103 187.975 106.568 185.96 106.568 185.96C106.568 185.96 103.745 184.881 102.564 180.82Z" fill="#81A7FF"/>
<path opacity="0.1" d="M92.349 182.192C86.0191 177.839 87.2105 166.258 87.397 164.372L82.5122 163.909C81.7559 167.687 80.4402 172.54 82.8334 178.841C85.5322 185.996 93.7114 187.97 97.6378 187.975C103.113 187.975 106.579 185.96 106.579 185.96C106.579 185.96 99.7616 187.296 92.349 182.192Z" fill="black"/>
<path d="M82.5122 163.909C82.7114 164.192 82.9732 164.426 83.2777 164.592C83.5821 164.759 83.9209 164.854 84.2682 164.871C85.3306 164.95 86.3971 164.781 87.3814 164.377C88.3658 163.972 89.2406 163.344 89.9351 162.542C90.1726 162.283 90.3462 161.972 90.4423 161.635C90.5385 161.298 90.5546 160.944 90.4894 160.599C89.5674 157.351 88.5055 153.83 87.3503 150.129C87.5782 150.849 87.3503 151.733 86.6717 152.637C85.7965 153.651 84.6925 154.446 83.4495 154.957C82.2065 155.468 80.8596 155.68 79.5182 155.577C78.3475 155.428 77.5601 154.925 77.2234 154.236C79.254 158.004 81.1499 161.524 82.5122 163.909Z" fill="#455A64"/>
<path d="M83.8072 154.801C82.4758 155.444 80.9924 155.713 79.5182 155.577C78.3475 155.428 77.5601 154.925 77.2234 154.236C79.2436 158.004 81.1499 161.524 82.5122 163.909C82.7114 164.192 82.9732 164.426 83.2777 164.592C83.5821 164.759 83.9209 164.854 84.2682 164.871C85.3313 164.963 86.4006 164.786 87.3762 164.357L87.4332 164.259L83.8072 154.786V154.801Z" fill="#37474F"/>
<path d="M50.7287 91.0699C53.7497 90.3624 55.6207 87.3587 54.9077 84.361C54.1947 81.3633 51.1676 79.5068 48.1466 80.2143C45.1256 80.9218 43.2547 83.9255 43.9677 86.9232C44.6807 89.9208 47.7077 91.7774 50.7287 91.0699Z" fill="#263238"/>
<path d="M35.9907 186.695H39.9482V179.972H35.9907V186.695Z" fill="#FFA8A7"/>
<path d="M49.7073 179.612L53.6648 179.746L53.8616 172.632L49.9093 172.498L49.7073 179.612Z" fill="#FFA8A7"/>
<path d="M36.26 126.68C36.26 130.433 35.742 153.157 35.742 153.157C35.6488 154.236 34.6335 156.241 34.851 160.353C35.1515 165.981 35.6436 180.62 35.6436 180.62C35.6436 180.62 37.498 182.444 40.1191 180.62C40.1191 180.62 43.7037 160.373 44.4081 154.791C45.066 149.939 46.102 136.724 46.102 136.724L49.7694 152.293C49.7694 152.293 49.1219 155.953 48.9821 158.533C48.8422 161.113 49.6503 174.642 49.6503 174.642C50.292 175.04 51.0276 175.264 51.7838 175.292C52.5399 175.32 53.2903 175.15 53.9601 174.801C53.9601 174.801 57.1354 154.4 57.5446 152.067C57.9538 149.733 54.763 126.691 54.763 126.691L36.26 126.68Z" fill="#37474F"/>
<path d="M40.0518 99.5566C39.2083 99.7028 38.4274 100.094 37.8078 100.68C37.1882 101.267 36.7578 102.022 36.5708 102.851C36.3558 103.831 36.2481 104.83 36.2497 105.833V126.68C39.021 129.677 48.6816 131.07 54.7578 126.68C54.7578 126.68 54.6386 108.269 54.1828 105.241C53.3954 99.9833 50.8624 98.1123 48.3139 98.3076L42.2066 99.202L40.0518 99.5566Z" fill="#F0F0F0"/>
<path d="M39.7306 89.6005C39.7306 89.6005 40.6423 93.8461 41.0049 94.5452C41.2502 94.9732 41.6501 95.2928 42.1238 95.4395L42.0616 92.4532L39.7306 89.6005Z" fill="#263238"/>
<path d="M40.8754 83.5199C40.5567 83.4837 40.2339 83.52 39.9315 83.6259C39.629 83.7319 39.3549 83.9048 39.1297 84.1315C38.3786 84.8922 38.7982 87.2721 39.7306 89.6005L41.4452 89.7958L40.8754 83.5199Z" fill="#263238"/>
<path d="M41.958 89.8009C41.6161 90.0014 41.124 89.3486 40.6993 88.9066C40.2745 88.4645 38.8915 87.8786 38.2025 89.3075C37.5136 90.7364 38.8138 92.7256 39.9016 93.0648C41.7819 93.6508 42.0616 92.4532 42.0616 92.4532L42.2067 99.202C42.6211 100.104 43.2545 100.889 44.05 101.488C44.8455 102.088 45.7784 102.482 46.7651 102.636C50.0958 103.083 49.412 100.358 48.3191 99.0375V96.9815C49.1563 97.1144 50.0054 97.1593 50.8521 97.1152C52.2351 96.8993 53.1054 95.8199 53.5198 94.3344C54.1932 91.9546 54.4522 90.0271 53.8772 85.3446C53.2556 80.2046 47.2313 80.1532 43.9834 82.1835C40.7355 84.2138 41.958 89.8009 41.958 89.8009Z" fill="#FFA8A7"/>
<path d="M41.958 90.3715C41.787 90.3715 41.1292 89.2921 40.6992 88.9066C40.1087 88.3926 40.8754 83.5199 40.8754 83.5199C40.7184 83.1007 40.6887 82.645 40.79 82.2092C40.8912 81.7735 41.119 81.3767 41.4452 81.0681C42.2584 80.184 43.6156 80.0812 45.9362 79.7214C47.1483 79.5312 48.9924 79.2074 50.2097 78.971C51.6601 78.7037 52.8619 78.421 53.8823 79.305C54.2822 79.6513 54.5653 80.1112 54.6931 80.6223C54.821 81.1335 54.7875 81.6713 54.5972 82.1629C54.4908 82.3863 54.3511 82.5925 54.1828 82.7745C53.9072 83.0983 53.5496 83.3432 53.1468 83.4839C53.1468 83.4839 52.5148 84.0441 50.3133 84.3063C48.2819 84.4577 46.2407 84.4198 44.2165 84.1932C43.5793 84.1058 43.4446 84.7072 43.0976 86.3983C42.792 87.894 42.5381 90.3612 41.958 90.3715Z" fill="#263238"/>
<path d="M40.8754 83.9002L38.8034 82.79C38.87 82.6537 38.9634 82.5321 39.0782 82.4322C39.1929 82.3323 39.3265 82.2561 39.4713 82.2082C39.6161 82.1604 39.7691 82.1417 39.9213 82.1533C40.0734 82.1649 40.2217 82.2066 40.3574 82.276C40.6377 82.4287 40.8479 82.6826 40.9443 82.9851C41.0408 83.2876 41.0161 83.6153 40.8754 83.9002Z" fill="#263238"/>
<path d="M48.3087 96.9507C48.3087 96.9507 45.2007 96.339 44.1647 95.7685C43.5303 95.4401 43.0104 94.9296 42.6729 94.3036C42.8326 94.9294 43.118 95.5169 43.512 96.0306C44.2994 97.0329 48.3139 97.7679 48.3139 97.7679L48.3087 96.9507Z" fill="#F28F8F"/>
<path d="M47.5679 89.0351C47.5649 89.1553 47.5261 89.272 47.4566 89.3706C47.387 89.4691 47.2897 89.5451 47.1768 89.5891C47.0639 89.633 46.9405 89.6429 46.822 89.6176C46.7035 89.5923 46.5951 89.5329 46.5104 89.4467C46.4258 89.3606 46.3686 89.2516 46.346 89.1334C46.3235 89.0152 46.3366 88.893 46.3836 88.7822C46.4307 88.6713 46.5097 88.5767 46.6107 88.5101C46.7117 88.4435 46.8302 88.408 46.9515 88.408C47.0336 88.4087 47.1147 88.4254 47.1902 88.4574C47.2657 88.4893 47.3341 88.5358 47.3914 88.5941C47.4487 88.6524 47.4938 88.7214 47.5241 88.7971C47.5544 88.8727 47.5693 88.9536 47.5679 89.0351Z" fill="#263238"/>
<path d="M46.9153 86.7221L45.584 87.4417C45.4945 87.2637 45.4763 87.0588 45.533 86.868C45.5897 86.6773 45.7171 86.5149 45.8896 86.4137C45.9767 86.364 46.073 86.3325 46.1728 86.3212C46.2725 86.3099 46.3735 86.319 46.4696 86.3479C46.5657 86.3768 46.6548 86.4249 46.7315 86.4892C46.8081 86.5536 46.8707 86.6328 46.9153 86.7221Z" fill="#263238"/>
<path d="M48.029 93.2704L49.4431 93.7844C49.4123 93.8783 49.3627 93.9649 49.2974 94.0394C49.2321 94.1138 49.1523 94.1744 49.0629 94.2175C48.9735 94.2607 48.8762 94.2856 48.7769 94.2906C48.6776 94.2957 48.5782 94.2809 48.4848 94.247C48.2972 94.1732 48.1452 94.0308 48.0604 93.849C47.9756 93.6673 47.9643 93.4602 48.029 93.2704Z" fill="#F28F8F"/>
<path d="M53.0795 87.2309L51.8725 86.3109C51.9291 86.2317 52.001 86.1646 52.0842 86.1136C52.1673 86.0626 52.2599 86.0286 52.3566 86.0137C52.4532 85.9989 52.5518 86.0034 52.6466 86.0271C52.7414 86.0508 52.8305 86.0931 52.9085 86.1515C53.0714 86.2752 53.18 86.4563 53.2118 86.6573C53.2436 86.8583 53.1962 87.0637 53.0795 87.2309Z" fill="#263238"/>
<path d="M52.7065 88.8603C52.7014 88.9801 52.661 89.0957 52.5902 89.1928C52.5195 89.29 52.4215 89.3644 52.3086 89.4068C52.1956 89.4491 52.0725 89.4576 51.9547 89.4312C51.8369 89.4048 51.7295 89.3446 51.6459 89.2581C51.5622 89.1716 51.506 89.0627 51.4843 88.9448C51.4625 88.8269 51.4761 88.7053 51.5235 88.595C51.5708 88.4847 51.6497 88.3907 51.7504 88.3245C51.8512 88.2584 51.9693 88.2231 52.0901 88.2229C52.173 88.2236 52.255 88.2407 52.3312 88.2733C52.4074 88.3059 52.4763 88.3532 52.5337 88.4126C52.5912 88.472 52.636 88.5423 52.6657 88.6191C52.6954 88.696 52.7092 88.778 52.7065 88.8603Z" fill="#263238"/>
<path d="M49.5623 88.2795L49.7643 91.9649L51.7016 91.3121L49.5623 88.2795Z" fill="#F28F8F"/>
<path d="M39.943 184.752V184.192C40.3263 184.356 41.2017 187.687 42.7764 189.106C44.0248 190.237 45.7238 191.542 46.159 192.801C46.5941 194.061 43.7865 194.857 42.621 194.631C41.2639 194.39 38.9173 193.444 38.3268 192.575C37.7363 191.707 37.4617 190.406 36.9852 189.764C36.5086 189.121 35.4001 188.402 35.1411 187.656C34.9961 187.245 35.1411 186.351 35.369 185.6C35.5969 184.85 35.7472 184.141 35.9854 184.207C35.9854 184.29 35.9854 184.634 35.9854 184.634C36.5482 185.075 37.2473 185.309 37.9642 185.297C38.5444 185.307 39.9481 185.189 39.943 184.752Z" fill="#263238"/>
<path d="M53.7062 178.533C53.9134 178.533 54.0792 178.831 54.5299 179.314C55.2082 179.994 55.996 180.557 56.8609 180.979C58.3423 181.714 61.2224 182.845 62.5278 183.431C63.341 183.791 63.3048 184.768 62.4604 185.328C61.6161 185.888 59.5855 186.279 57.1458 185.739C55.8145 185.446 54.0844 184.228 53.0018 184.29C51.9191 184.351 49.8523 184.341 49.0442 183.776C48.2362 183.21 48.5573 182.038 48.7904 181.026C49.0391 179.915 49.3965 178.219 49.7643 178.296V178.646C50.2408 179.36 52.6599 179.674 53.7062 179.124V178.533Z" fill="#263238"/>
<path d="M46.102 136.724C48.1477 136.09 50.0289 135.02 51.6135 133.589C51.6135 133.589 50.5464 135.562 47.3866 137.402L48.5728 147.441L46.102 136.724Z" fill="#263238"/>
<path d="M68.2465 122.065C67.3763 122.286 66.5371 122.214 65.3353 122.625C64.5354 122.971 63.6622 123.118 62.792 123.052C61.6679 122.985 58.7153 121.597 56.0994 120.024C53.2377 118.17 50.7167 115.844 48.6454 113.147C46.2781 109.821 43.657 104.578 42.4294 102.574C41.2017 100.569 39.9896 100.353 38.5962 100.415C36.9593 100.482 35.9129 101.957 37.353 105.041C39.4091 109.247 41.9319 113.212 44.8743 116.863C47.1354 119.508 49.82 121.766 52.8205 123.545C55.5866 125.226 58.0005 126.053 61.1085 127.076C61.9476 127.354 62.5019 127.765 64.0352 128.485C64.6506 128.818 65.3121 129.061 65.9984 129.204C66.8571 129.33 67.7297 129.33 68.5884 129.204C69.6795 129.057 70.7103 128.62 71.5721 127.94C72.0468 127.566 72.4265 127.087 72.6806 126.542C72.93 125.991 72.9758 125.37 72.8101 124.789C72.7805 124.672 72.7217 124.564 72.6391 124.475C72.4564 124.35 72.2322 124.298 72.0124 124.331C70.7559 124.457 69.4938 124.519 68.231 124.516C67.195 124.439 66.4801 124.249 66.6252 124.105C66.7702 123.961 67.3814 124.044 68.2102 123.689C69.039 123.334 69.5778 122.548 69.355 122.147C69.1323 121.746 69.1167 121.844 68.2465 122.065Z" fill="#FFA8A7"/>
<path d="M39.1038 99.8394C37.8451 99.901 36.2186 100.662 36.2496 102.795C36.2807 104.928 39.5804 111.122 42.1238 114.658C42.1238 114.658 46.0968 114.406 48.1792 111.435C48.1792 111.435 44.4703 105.581 43.4654 103.725C42.5589 102.034 40.922 99.7468 39.1038 99.8394Z" fill="#E0E0E0"/>
<path d="M72.002 108.701C70.858 108.222 69.5983 108.082 68.376 108.3C67.34 108.469 67.34 111.898 70.6707 112.993C72.8412 113.697 74.1465 113.388 74.8458 115.157C74.8458 115.157 76.2496 114.972 75.9336 112.993C75.5852 110.952 74.6683 109.049 73.2866 107.498C72.3283 106.377 72.2507 105.442 71.7948 105.756C71.339 106.069 71.3441 107.22 71.3441 107.22L72.002 108.701Z" fill="#FFA8A7"/>
<path d="M162.963 122.939L143.952 122.682L143.786 138.102C143.786 139.494 144.683 140.898 146.527 141.982C150.22 144.151 156.239 144.213 159.995 142.126C161.88 141.072 162.823 139.674 162.818 138.266L162.963 122.939Z" fill="#37474F"/>
<path d="M146.78 118.863C143.046 120.954 143.009 124.403 146.698 126.573C150.386 128.742 156.405 128.803 160.14 126.716C163.874 124.63 163.916 121.181 160.228 119.006C156.54 116.832 150.515 116.776 146.78 118.863Z" fill="#455A64"/>
<path d="M162.134 122.877C162.13 123.129 162.084 123.379 161.999 123.617C161.714 124.501 160.937 125.318 159.725 125.997C157.757 126.953 155.591 127.439 153.4 127.416C151.209 127.392 149.054 126.861 147.107 125.863C145.936 125.174 145.169 124.321 144.9 123.483C144.809 123.229 144.764 122.961 144.765 122.692C144.765 121.546 145.636 120.435 147.179 119.608C149.148 118.655 151.314 118.171 153.504 118.194C155.695 118.218 157.85 118.747 159.798 119.741C161.331 120.61 162.134 121.725 162.134 122.877Z" fill="#263238"/>
<path d="M162.01 123.617C161.725 124.501 160.948 125.318 159.736 125.997C157.768 126.953 155.602 127.439 153.41 127.416C151.219 127.392 149.064 126.861 147.117 125.863C145.946 125.174 145.18 124.321 144.91 123.483C145.343 122.437 146.157 121.591 147.19 121.114C149.156 120.151 151.323 119.662 153.515 119.685C155.707 119.708 157.863 120.244 159.808 121.247C160.808 121.745 161.591 122.588 162.01 123.617Z" fill="#81A7FF"/>
<path d="M157.508 128.711C157.928 128.479 158.259 128.675 158.254 129.148C158.237 129.406 158.16 129.657 158.027 129.88C157.895 130.103 157.712 130.292 157.493 130.433C157.073 130.664 156.742 130.469 156.747 129.996C156.764 129.737 156.841 129.487 156.973 129.263C157.106 129.04 157.289 128.851 157.508 128.711Z" fill="#263238"/>
<path d="M143.921 125.416C142.885 127.472 140.813 132.324 143.496 134.308C143.61 134.39 143.714 134.462 143.828 134.534V135.516C143.559 135.357 143.279 135.172 143.009 134.976C138.974 132.005 143.527 124.393 143.724 124.074C143.774 123.989 143.856 123.926 143.952 123.9L143.921 125.416Z" fill="#E0E0E0"/>
<path d="M157.866 129.764C157.752 130.001 154.815 135.573 149.982 136.693C149.436 136.824 148.876 136.89 148.314 136.888C146.711 136.859 145.151 136.373 143.818 135.49V134.509C145.812 135.881 147.822 136.354 149.785 135.902C154.245 134.874 157.099 129.435 157.12 129.384C157.145 129.336 157.179 129.294 157.221 129.259C157.263 129.224 157.311 129.198 157.363 129.182C157.415 129.165 157.47 129.159 157.524 129.164C157.578 129.169 157.631 129.184 157.679 129.209C157.729 129.232 157.774 129.265 157.811 129.306C157.848 129.347 157.876 129.395 157.894 129.447C157.911 129.499 157.918 129.554 157.913 129.608C157.908 129.663 157.892 129.716 157.866 129.764Z" fill="#E0E0E0"/>
<path d="M133.266 92.2733H89.7539L94.6179 131.995C94.8406 134.298 96.462 136.56 99.5285 138.317C106.143 142.106 116.861 142.106 123.47 138.317C126.537 136.56 128.164 134.298 128.386 131.995L133.266 92.2733Z" fill="#37474F"/>
<path d="M96.1465 83.4531C104.647 78.5855 118.42 78.5855 126.926 83.4531C135.432 88.3206 135.426 96.2208 126.926 101.088C118.426 105.956 104.652 105.956 96.1465 101.088C87.6409 96.2208 87.6461 88.3258 96.1465 83.4531Z" fill="#455A64"/>
<path d="M111.536 102.235C106.159 102.235 101.14 101.058 97.4099 98.9193C94.1102 97.0278 92.2972 94.6685 92.2972 92.2682C92.2972 89.8678 94.1102 87.5137 97.4099 85.6221C101.14 83.4839 106.159 82.3068 111.536 82.3068C116.913 82.3068 121.932 83.4839 125.662 85.6221C128.961 87.5137 130.774 89.8729 130.774 92.2682C130.774 94.6634 128.961 97.0278 125.662 98.9142C121.932 101.058 116.913 102.235 111.536 102.235Z" fill="#263238"/>
<mask id="mask0_13_75" style="mask-type:luminance" maskUnits="userSpaceOnUse" x="83" y="15" width="60" height="88">
<path d="M111.246 102.235C105.869 102.235 100.849 101.058 97.1198 98.9193C93.8202 97.0278 92.0072 94.6685 92.0072 92.2681C92.0072 89.8678 83.8849 31.5288 83.8849 31.5288L103.357 15.641L142.025 29.5704C142.025 29.5704 130.774 89.8729 130.774 92.2784C130.774 94.6839 128.739 97.1666 125.444 99.0529C121.73 101.181 116.623 102.235 111.246 102.235Z" fill="white"/>
</mask>
<g mask="url(#mask0_13_75)">
<path d="M122.973 51.5388L122.73 53.0808L122.419 54.9672L111.629 122.913C112.729 124.503 114.394 125.621 116.291 126.043C119.14 126.788 122.253 126.3 123.543 124.881L134.286 57.4652L134.861 53.8672C134.359 56.1699 122.502 53.8723 122.973 51.5388Z" fill="#81A7FF"/>
<path d="M122.01 57.496L121.461 60.9964C121.269 62.0244 123.341 62.9958 125.822 63.6126C129.106 64.435 133.105 64.6047 133.364 63.2683L133.774 60.6983L133.903 59.7731C133.644 61.1095 129.645 60.945 126.361 60.1226C123.983 59.5263 121.973 58.5806 121.999 57.6194C121.988 57.5784 121.992 57.5346 122.01 57.496Z" fill="#EBEBEB"/>
<path d="M121.88 58.375C121.424 60.7137 133.323 63.001 133.794 60.6417L134.354 57.1414C133.903 59.4801 122.005 57.2133 122.44 54.8746L121.88 58.375Z" fill="#81A7FF"/>
<path d="M122.973 51.5388L122.419 54.998C121.958 57.2956 133.421 59.624 134.286 57.4703C134.306 57.4297 134.32 57.3864 134.328 57.3418L134.846 53.8569C134.359 56.1699 122.502 53.8723 122.973 51.5388Z" fill="#EBEBEB"/>
<path opacity="0.1" d="M134.286 57.4652L134.861 53.8672C134.633 54.8952 132.085 55.0185 129.407 54.6022L118.555 126.377L115.555 140.05L123.584 124.887L134.286 57.4652Z" fill="black"/>
<path d="M125.32 36.8744L122.973 51.5388C122.771 52.5359 124.822 53.528 127.278 54.1499C130.562 54.9877 134.576 55.1779 134.861 53.8518L137.115 39.7476C137.912 36.4991 131.867 34.0936 128.101 34.767C126.698 34.9931 125.62 35.6613 125.32 36.8744Z" fill="#FFA8A7"/>
<path d="M97.6637 121.561L97.4462 119.988L97.1716 118.097L87.5679 49.9968C88.4589 50.9066 90.764 51.3897 93.2659 51.1224C96.1926 50.8089 98.8914 49.6164 99.5337 48.2338L109.065 115.83L109.583 119.454C109.127 117.125 97.2338 119.217 97.6637 121.561Z" fill="#81A7FF"/>
<path d="M92.4734 36.6019C90.7329 37.0491 90.1165 36.6893 90.1165 36.6893L87.5731 49.9968C88.9613 51.9757 92.3439 52.3869 95.2084 51.5388L95.1204 50.886L92.4734 36.6019Z" fill="#FFA8A7"/>
<path d="M93.3073 35.9183L91.7948 32.932L93.3073 35.9183Z" fill="#E0E0E0"/>
<path d="M90.8106 33.0708L90.1165 36.6688C90.1165 36.6688 90.707 37.0851 92.4734 36.5814L91.7948 32.9114C91.7649 32.8506 91.7233 32.7962 91.6722 32.7514C91.6212 32.7065 91.5617 32.6722 91.4972 32.6502C91.4327 32.6282 91.3645 32.6191 91.2964 32.6234C91.2284 32.6276 91.1619 32.6452 91.1007 32.675C91.023 32.7118 90.9557 32.7673 90.9051 32.8364C90.8544 32.9055 90.822 32.9861 90.8106 33.0708Z" fill="#455A64"/>
<path opacity="0.1" d="M109.08 115.83L99.5492 48.2492C98.8758 49.858 97.1613 50.9991 95.2084 51.5593L104.149 118.621C106.838 118.251 109.381 118.4 109.588 119.454L109.08 115.83Z" fill="black"/>
<path d="M99.5492 48.2492L93.3022 35.9132C93.1135 36.2311 92.8183 36.473 92.4682 36.5968L95.1203 50.886L95.2084 51.5491C97.1613 50.9991 98.8758 49.858 99.5492 48.2492Z" fill="#F28F8F"/>
<path d="M92.4733 36.6019C92.6554 36.558 92.8251 36.4737 92.9696 36.3553C93.114 36.2369 93.2295 36.0875 93.3073 35.9183L91.7948 32.932L92.4733 36.6019Z" fill="#37474F"/>
<path d="M107.671 43.8493C107.671 43.8493 105.356 62.2814 105.335 80.5335C105.335 98.6263 108.687 118.379 109.36 121.427C109.36 121.427 109.36 121.427 109.36 121.463C109.363 121.48 109.363 121.498 109.36 121.515C109.428 121.794 109.584 122.044 109.805 122.229C110.026 122.414 110.3 122.524 110.589 122.544C110.877 122.564 111.165 122.493 111.409 122.34C111.654 122.187 111.843 121.961 111.95 121.695C111.99 121.599 112.018 121.499 112.033 121.397C112.033 121.397 116.55 98.174 116.586 80.3896C116.623 62.6052 114.286 43.8288 114.286 43.8288C114.225 43.5756 114.107 43.3393 113.941 43.1374C113.775 42.9355 113.566 42.773 113.328 42.662C112.601 42.2954 111.797 42.1044 110.981 42.1044C110.166 42.1044 109.362 42.2954 108.635 42.662C108.393 42.7723 108.179 42.9369 108.012 43.143C107.845 43.3491 107.728 43.5909 107.671 43.8493Z" fill="#81A7FF"/>
<path opacity="0.1" d="M111.955 121.695C111.996 121.599 112.023 121.499 112.038 121.397C112.038 121.397 116.55 98.174 116.586 80.3896C116.586 68.4185 115.55 56.0106 114.866 49.1692L110.681 49.8888C110.681 49.8888 111.354 122.363 110.163 122.425C110.329 122.494 110.507 122.531 110.687 122.532C110.867 122.533 111.046 122.499 111.213 122.431C111.379 122.363 111.531 122.263 111.658 122.137C111.786 122.01 111.887 121.86 111.955 121.695Z" fill="black"/>
<path d="M110.971 42.0812C111.551 41.0018 114.716 35.173 113.696 30.4237C113.059 30.4065 112.43 30.2741 111.841 30.033C109.567 29.0975 109.837 27.0929 108.215 26.2089C106.594 25.3248 104.631 28.049 104.615 28.0747C103.823 30.4699 102.839 33.0348 103.714 36.6893C104.322 39.4019 105.701 41.8848 107.687 43.8442H114.302L110.971 42.0812Z" fill="#F0F0F0"/>
<path opacity="0.1" d="M118.373 31.4722C116.964 29.7914 115.519 30.4853 113.711 30.4442C114.747 35.1936 111.567 41.0223 110.987 42.1017L114.302 43.8442C114.716 43.2325 115.172 42.5798 115.623 41.8704C115.737 41.6957 115.851 41.5106 115.965 41.3256C116.193 40.9555 116.415 40.5649 116.628 40.1588C116.967 39.519 117.265 38.858 117.519 38.1799C117.69 37.707 117.85 37.2136 117.985 36.6893C118.288 35.5488 118.462 34.3781 118.503 33.1993C118.511 32.6209 118.468 32.043 118.373 31.4722Z" fill="black"/>
<path d="M118.368 31.4465C118.322 31.1535 118.265 30.8708 118.197 30.5881V30.5059C118.14 30.2952 118.078 30.0844 118.011 29.884L117.933 29.6475C117.933 29.5858 117.881 29.5242 117.861 29.4625L117.731 29.1387C117.674 29.005 117.617 28.8765 117.555 28.7532C117.409 28.4629 117.247 28.1814 117.068 27.9102C116.907 27.6378 116.736 27.3962 116.55 27.1186C116.364 26.8411 116.182 26.6046 115.985 26.3836C114.76 24.9302 113.263 23.7259 111.577 22.837L111.209 22.652L111.106 22.6006L110.681 22.4155C109.803 22.0503 108.895 21.7614 107.967 21.552C107.552 21.4595 107.159 21.3927 106.791 21.3361C106.423 21.2796 106.081 21.2488 105.755 21.2282L105.309 21.1974H104.916H104.284C103.937 21.1974 103.766 21.2385 103.766 21.2385C103.766 21.2385 105.454 22.8267 105.081 26.0341C104.979 26.735 104.805 27.4238 104.563 28.0901C104.563 28.0901 106.532 25.3453 108.164 26.2243C109.795 27.1032 109.531 29.113 111.79 30.0484C112.379 30.2895 113.007 30.4219 113.644 30.4391C115.467 30.5008 116.913 29.8069 118.306 31.4671L118.368 31.4465Z" fill="#81A7FF"/>
<path opacity="0.1" d="M103.781 21.2385C103.781 21.2385 108.998 22.2665 112.732 28.0387C113.197 28.7688 113.524 29.5771 113.696 30.4237C115.519 30.4853 116.964 29.7914 118.358 31.4517C118.311 31.1587 118.254 30.876 118.187 30.5933V30.511C118.13 30.3003 118.068 30.0896 118 29.8891L117.923 29.6527C117.923 29.591 117.871 29.5293 117.85 29.4676L117.721 29.1438C117.664 29.0102 117.607 28.8817 117.545 28.7583C117.401 28.4676 117.241 28.1846 117.068 27.9102C116.907 27.6378 116.736 27.3962 116.55 27.1186C116.364 26.8411 116.182 26.6046 115.985 26.3836C114.76 24.9302 113.263 23.7259 111.577 22.837L111.209 22.652L111.106 22.6006L110.681 22.4155C109.803 22.0503 108.895 21.7614 107.967 21.552C107.552 21.4595 107.159 21.3927 106.791 21.3361C106.423 21.2796 106.081 21.2488 105.755 21.2282L105.309 21.1974H104.916H104.284C103.937 21.1974 103.766 21.2385 103.766 21.2385H103.781Z" fill="black"/>
<path d="M114.286 43.8236C114.224 43.5715 114.105 43.3365 113.939 43.1355C113.774 42.9346 113.565 42.7728 113.328 42.662C112.601 42.2954 111.797 42.1044 110.981 42.1044C110.166 42.1044 109.362 42.2954 108.635 42.662C108.39 42.7736 108.175 42.9412 108.007 43.1512C107.84 43.3611 107.725 43.6074 107.671 43.8699C107.361 46.4399 107.071 49.2361 106.791 52.1864C106.851 51.8451 106.994 51.5233 107.207 51.2485C107.42 50.9737 107.696 50.7541 108.013 50.6084C108.932 50.1461 109.947 49.9051 110.976 49.9051C112.006 49.9051 113.021 50.1461 113.939 50.6084C114.263 50.7546 114.545 50.9787 114.76 51.2606C114.974 51.5425 115.114 51.8731 115.167 52.2224C114.851 48.9534 114.545 45.9105 114.286 43.8236Z" fill="#455A64"/>
<path d="M110.681 49.8888C111.818 49.8175 112.953 50.0594 113.96 50.5879C114.284 50.734 114.566 50.9582 114.781 51.2401C114.995 51.522 115.135 51.8526 115.188 52.2018C114.872 48.9534 114.566 45.9105 114.307 43.8236C114.242 43.5696 114.12 43.3332 113.951 43.1321C113.781 42.931 113.569 42.7704 113.328 42.662C112.603 42.2804 111.792 42.0892 110.971 42.1069L110.899 42.1583L110.681 49.9145V49.8888Z" fill="#37474F"/>
</g>
<path d="M134.861 53.8518L137.115 39.7476C137.15 39.6045 137.171 39.4581 137.177 39.3107C136.234 41.7214 131.572 40.4878 131.572 40.4878L129.391 54.5817C132.09 54.998 134.633 54.9003 134.861 53.8518Z" fill="#F28F8F"/>
</svg>
